# xmcd
#
# Track frame offsets:
#	150
#	21266
#	33529
#	54012
#	70487
#	85215
#	105950
#	120858
#	139019
#	161270
#	178579
#	198035
#	215465
#	233448
#	251827
#	275469
#	296779
#	316890
#
# Disc length: 4512 seconds
#
# Revision: 6
# Processed by: cddbd v1.5.2PL0 Copyright (c) Steve Scherf et al.
# Submitted via: Jack! The Knife 20 Magnifico
#
DISCID=ee119e12
DTITLE=Pooh - Best Of The Best
DYEAR=2001
DGENRE=Pop
TTITLE0=Portami Via
TTITLE1=Piccola Katy
TTITLE2=Tanta Voglia Di Lei
TTITLE3=Pensiero
TTITLE4=Noi Due Nel Mondo E Nell'anima
TTITLE5=Io E Te Per Altri Giorni
TTITLE6=Linda
TTITLE7=Dammi Solo Un Minuto
TTITLE8=Pronto, Buongiorno È La Sveglia
TTITLE9=Canterò Per Te
TTITLE10=Chi Fermerà La Musica
TTITLE11=E Arrivi Tu
TTITLE12=Non Siamo In Pericolo
TTITLE13=Uomini Soli
TTITLE14=La Donna Del Mio Amico
TTITLE15=Dimmi Di Sì
TTITLE16=Stai Con Me
TTITLE17=Figli
EXTD=Danilo Ballo
EXTT0=Canzian, Negrini
EXTT1=Facchinetti, Negrini
EXTT2=Facchinetti, Negrini
EXTT3=Facchinetti, Negrini
EXTT4=Facchinetti, Negrini
EXTT5=Facchinetti, Negrini
EXTT6=Facchinetti, Negrini
EXTT7=Facchinetti, Negrini
EXTT8=Facchinetti, D'Orazio
EXTT9=Battaglia, Negrini
EXTT10=Facchinetti, Negrini
EXTT11=Battaglia, D'Orazio
EXTT12=Facchinetti, Negrini
EXTT13=Facchinetti, Negrini
EXTT14=Facchinetti, D'Orazio
EXTT15=Facchinetti, D'Orazio
EXTT16=Canzian, D'Orazio
EXTT17=Facchinetti, Negrini
PLAYORDER=
